<?xml version="1.0" ?><!DOCTYPE svg  PUBLIC '-//W3C//DTD SVG 1.1//EN'  'http://www.w3.org/Graphics/SVG/1.1/DTD/svg11.dtd'><svg height="123px" style="enable-background:new 0 0 111 123;" version="1.1" viewBox="0 0 111 123" width="111px" xml:space="preserve" xmlns="http://www.w3.org/2000/svg" xmlns:xlink="http://www.w3.org/1999/xlink"><style type="text/css">
<![CDATA[
	.st0{fill:#EF3E42;}
	.st1{fill:#FFFFFF;}
	.st2{fill:none;}
	.st3{fill-rule:evenodd;clip-rule:evenodd;fill:#FFFFFF;}
]]>
</style><defs/><path d="M86.6,65.5H30.4v41.3h56.2V65.5L86.6,65.5z M80.6,19.9H67.7v20.9h12.9V19.9L80.6,19.9z M63.8,19.9H36v20.9h27.8V19.9  L63.8,19.9z M32,19.9H15.1v86.8H26V63.5c0-1.3,1.1-2.4,2.4-2.4h60.1c1.3,0,2.4,1.1,2.4,2.4v43.2h10.9V30.4L91.4,19.9h-6.7v24.6H32  V19.9L32,19.9z M21.3,29.5c-1.9,0-3.4-1.5-3.4-3.4c0-1.9,1.5-3.4,3.4-3.4c1.9,0,3.4,1.5,3.4,3.4C24.6,28,23.1,29.5,21.3,29.5  L21.3,29.5z"/><rect class="st2" height="123" id="_x3C_Slice_x3E__100_" width="111"/></svg>