<?xml version="1.0" standalone="no"?>
<!DOCTYPE svg PUBLIC "-//W3C//DTD SVG 20010904//EN"
 "http://www.w3.org/TR/2001/REC-SVG-20010904/DTD/svg10.dtd">
<svg version="1.0" xmlns="http://www.w3.org/2000/svg"
 width="980.000000pt" height="980.000000pt" viewBox="0 0 980.000000 980.000000"
 preserveAspectRatio="xMidYMid meet">

<g transform="translate(0.000000,980.000000) scale(0.100000,-0.100000)"
fill="#000000" stroke="none">
<path d="M4565 9789 c-878 -76 -1644 -333 -2340 -787 -440 -286 -847 -658
-1179 -1077 -697 -881 -1072 -2012 -1043 -3145 21 -766 195 -1455 535 -2114
323 -624 777 -1175 1341 -1624 435 -347 969 -629 1531 -810 348 -112 687 -178
1090 -213 175 -16 660 -15 820 0 1037 99 1931 469 2730 1129 140 115 475 450
589 587 683 824 1080 1809 1151 2860 46 687 -74 1439 -337 2105 -587 1490
-1912 2627 -3465 2975 -309 70 -531 97 -923 115 -250 11 -358 11 -500 -1z
m465 -614 c371 -9 559 -31 850 -101 643 -154 1186 -420 1710 -838 165 -132
499 -467 634 -636 789 -992 1106 -2196 900 -3423 -66 -395 -186 -763 -365
-1128 -227 -461 -494 -845 -797 -1142 l-89 -89 -28 79 c-160 447 -328 740
-614 1065 -472 538 -1029 873 -1691 1017 -1070 234 -2158 -94 -2926 -880 -288
-296 -496 -616 -664 -1024 -34 -82 -68 -161 -75 -174 l-12 -24 -67 67 c-159
161 -343 392 -481 601 -378 575 -609 1225 -687 1930 -20 182 -17 713 5 890
125 1006 540 1867 1232 2560 606 606 1341 1003 2175 1174 283 58 607 95 735
84 17 -1 131 -5 255 -8z"/>
<path d="M4675 8220 c-254 -22 -602 -150 -830 -305 -563 -382 -857 -1008 -795
-1694 39 -434 229 -827 551 -1136 207 -199 429 -332 707 -425 195 -65 262 -73
607 -67 287 4 304 5 393 31 432 122 798 373 1045 717 129 181 258 472 302 684
47 227 39 586 -17 810 -38 155 -132 377 -221 528 -223 375 -659 696 -1096 808
-159 41 -471 64 -646 49z"/>
</g>
</svg>
