<svg id="svg" version="1.1" xmlns="http://www.w3.org/2000/svg" xmlns:xlink="http://www.w3.org/1999/xlink" width="400" height="400" viewBox="0, 0, 400,400"><g id="svgg"><path id="path0" d="M188.222 0.304 C 112.715 6.882,52.618 46.863,20.664 111.778 C -35.560 225.994,27.957 363.164,151.333 393.968 C 277.135 425.377,399.686 330.015,399.747 200.667 C 399.790 108.025,337.180 27.871,247.556 5.832 C 230.500 1.638,202.673 -0.955,188.222 0.304 M205.778 25.534 C 221.339 25.918,229.955 27.017,242.421 30.208 C 355.330 59.110,409.419 186.814,351.327 287.333 C 342.465 302.668,322.141 328.239,321.152 325.299 C 302.456 269.726,254.896 234.667,198.204 234.667 C 145.040 234.667,99.012 266.515,78.732 317.333 C 76.085 323.966,76.422 323.710,73.749 321.111 C 55.906 303.752,39.448 275.293,31.748 248.485 C 3.547 150.299,65.069 48.982,165.333 28.490 C 175.775 26.355,189.942 24.772,194.889 25.186 C 195.622 25.248,200.522 25.404,205.778 25.534 M187.778 64.764 C 171.002 67.107,151.784 77.961,141.142 91.103 C 105.856 134.679,128.154 199.192,182.889 211.886 C 187.995 213.070,210.010 212.910,215.153 211.651 C 262.415 200.082,286.326 149.310,265.118 105.556 C 251.481 77.422,219.169 60.379,187.778 64.764 " stroke="none" fill="#000000" fill-rule="evenodd"></path></g></svg>